<svg xmlns="http://www.w3.org/2000/svg" xmlns:xlink="http://www.w3.org/1999/xlink" version="1.1" x="0px" y="0px" viewBox="0 0 32 40" enable-background="new 0 0 32 32" xml:space="preserve"><g><path d="M16,20c-2.2061,0-4-1.7944-4-4s1.7939-4,4-4s4,1.7944,4,4S18.2061,20,16,20z M16,14c-1.1025,0-2,0.897-2,2s0.8975,2,2,2   s2-0.897,2-2S17.1025,14,16,14z"/><path d="M25,26c-0.2559,0-0.5117-0.0977-0.707-0.293l-3-3c-0.3906-0.3906-0.3906-1.0234,0-1.4141L23.5859,19l-2.293-2.293   c-0.3906-0.3906-0.3906-1.0234,0-1.4141L23.5859,13l-2.293-2.293c-0.3906-0.3906-0.3906-1.0234,0-1.4141l3-3   c0.3906-0.3906,1.0234-0.3906,1.4141,0s0.3906,1.0234,0,1.4141L23.4141,10l2.293,2.293c0.3906,0.3906,0.3906,1.0234,0,1.4141   L23.4141,16l2.293,2.293c0.3906,0.3906,0.3906,1.0234,0,1.4141L23.4141,22l2.293,2.293c0.3906,0.3906,0.3906,1.0234,0,1.4141   C25.5117,25.9023,25.2559,26,25,26z"/><path d="M29,26c-0.2559,0-0.5117-0.0977-0.707-0.293l-3-3c-0.3906-0.3906-0.3906-1.0234,0-1.4141L27.5859,19l-2.293-2.293   c-0.3906-0.3906-0.3906-1.0234,0-1.4141L27.5859,13l-2.293-2.293c-0.3906-0.3906-0.3906-1.0234,0-1.4141l3-3   c0.3906-0.3906,1.0234-0.3906,1.4141,0s0.3906,1.0234,0,1.4141L27.4141,10l2.293,2.293c0.3906,0.3906,0.3906,1.0234,0,1.4141   L27.4141,16l2.293,2.293c0.3906,0.3906,0.3906,1.0234,0,1.4141L27.4141,22l2.293,2.293c0.3906,0.3906,0.3906,1.0234,0,1.4141   C29.5117,25.9023,29.2559,26,29,26z"/><path d="M7,26c-0.2559,0-0.5117-0.0977-0.707-0.293c-0.3906-0.3906-0.3906-1.0234,0-1.4141L8.5859,22l-2.293-2.293   c-0.3906-0.3906-0.3906-1.0234,0-1.4141L8.5859,16l-2.293-2.293c-0.3906-0.3906-0.3906-1.0234,0-1.4141L8.5859,10L6.293,7.707   c-0.3906-0.3906-0.3906-1.0234,0-1.4141s1.0234-0.3906,1.4141,0l3,3c0.3906,0.3906,0.3906,1.0234,0,1.4141L8.4141,13l2.293,2.293   c0.3906,0.3906,0.3906,1.0234,0,1.4141L8.4141,19l2.293,2.293c0.3906,0.3906,0.3906,1.0234,0,1.4141l-3,3   C7.5117,25.9023,7.2559,26,7,26z"/><path d="M3,26c-0.2559,0-0.5117-0.0977-0.707-0.293c-0.3906-0.3906-0.3906-1.0234,0-1.4141L4.5859,22l-2.293-2.293   c-0.3906-0.3906-0.3906-1.0234,0-1.4141L4.5859,16l-2.293-2.293c-0.3906-0.3906-0.3906-1.0234,0-1.4141L4.5859,10L2.293,7.707   c-0.3906-0.3906-0.3906-1.0234,0-1.4141s1.0234-0.3906,1.4141,0l3,3c0.3906,0.3906,0.3906,1.0234,0,1.4141L4.4141,13l2.293,2.293   c0.3906,0.3906,0.3906,1.0234,0,1.4141L4.4141,19l2.293,2.293c0.3906,0.3906,0.3906,1.0234,0,1.4141l-3,3   C3.5117,25.9023,3.2559,26,3,26z"/></g><text x="0" y="47" fill="#000000" font-size="5px" font-weight="bold" font-family="'Helvetica Neue', Helvetica, Arial-Unicode, Arial, Sans-serif">Created by M. Oki Orlando</text><text x="0" y="52" fill="#000000" font-size="5px" font-weight="bold" font-family="'Helvetica Neue', Helvetica, Arial-Unicode, Arial, Sans-serif">from the Noun Project</text></svg>